<?xml version="1.0" encoding="utf-8"?>
<!-- Generator: Adobe Illustrator 22.0.1, SVG Export Plug-In . SVG Version: 6.00 Build 0)  -->
<svg version="1.1" id="Layer_1" xmlns="http://www.w3.org/2000/svg" xmlns:xlink="http://www.w3.org/1999/xlink" x="0px" y="0px"
	 viewBox="0 0 884 1000" style="enable-background:new 0 0 884 1000;" xml:space="preserve">
<path style="fill:none;stroke:#000000;stroke-miterlimit:10;" d="M426.2,23.9c-25.9,6.1-46.5,25.3-53.8,50.6l-3.5,12.4l-17.7,8.8
	C257,143.2,185.4,220.1,162.7,298.4c-10,34.3-10.6,43-10.4,197.2c0,81.6-0.8,153.9-2,167.8c-2.4,28.6,0.8,24.3-37.9,51.6
	c-44.6,31.2-73,62.4-77.9,85.8c-1.2,5.5-2.2,25.9-2.2,45.1c0,34.3,0.2,35.3,4.7,40.6l4.7,5.5h400.5h400.4l4.5-4.5
	c4.3-4.3,4.5-5.3,4.5-45.1c0-34.9-0.6-41.8-3.5-49.5c-9.6-23.4-35.1-49.6-75.8-78.1c-38.3-26.9-35.3-23-37.9-50.4
	c-1.2-14.5-2-78.3-1.8-165.8c0.2-149.5-0.6-165.8-8.6-198.4C702.9,214.8,637,141,542.6,96.9c-12.4-5.9-23.7-11.4-25.3-12
	c-1.4-0.8-4.1-6.5-6.1-12.4C500.2,36.8,462.5,15.3,426.2,23.9z"/>
<path style="fill:none;stroke:#000000;stroke-miterlimit:10;" d="M572.6,894.3c0,0,0.4,10.4-2,19.1c-6.1,21.8-29.6,42.3-57.5,50.4
	c-19.8,9-122.2,8.7-142,0c-27.9-8.2-51.5-28.7-57.5-50.4c-3-11.1-1.7-19.2-1.7-19.2"/>
</svg>
