<?xml version="1.0" encoding="utf-8"?>
<!-- Generator: Adobe Illustrator 22.0.1, SVG Export Plug-In . SVG Version: 6.00 Build 0)  -->
<svg version="1.1" id="Layer_1" xmlns="http://www.w3.org/2000/svg" xmlns:xlink="http://www.w3.org/1999/xlink" x="0px" y="0px"
	 viewBox="0 0 925.8 925.8" style="enable-background:new 0 0 925.8 925.8;" xml:space="preserve">
<path style="fill:none;stroke:#000000;stroke-miterlimit:10;" d="M437.2,26.1c-2.4,0.3-9.9,1.5-16.9,2.6c-20.2,2.9-28.9,6.2-37.3,14
	c-13.7,12.5-14.9,16.8-15.6,49.4l-0.7,28.4l-4.4,1.7c-2.6,0.9-12.7,4.6-22.6,8c-9.9,3.6-24.6,9.8-32.8,13.9s-15.9,7.5-16.9,7.5
	c-1.2,0-9.9-7.7-19.5-16.9c-22.1-21.4-28.2-24.8-45.3-25c-14.5,0-19.5,2.1-43.3,19.3c-27.5,19.7-64.1,61.7-70.6,81.2
	c-3.4,10.3-2.6,25,1.9,34.5c1.9,3.8,11.3,14.9,20.9,25c9.8,9.9,17.6,19,17.6,19.8c0,1-4.1,10.6-9.2,21.2
	c-5.1,10.8-12.1,27.7-15.7,37.8l-6.2,18.5H95c-21.2,0-26.8,0.5-34.5,3.4c-25,9.4-34.4,35-34.4,93.2c0,47.4,5.1,68.7,20,82.4
	c11.1,10.3,20.3,12.5,50.1,12.5h24.3l6.3,18.3c3.4,10.3,10.4,27.2,15.6,38c5.1,10.8,9.2,20.3,9.2,21.2c0,1-7.7,9.6-17.1,19.2
	c-21.4,21.7-26.5,31.6-25.1,48.1c0.9,12.1,4.4,19.5,19.5,40.4c18,24.8,53.9,57.3,75.4,68.2c5,2.4,12.1,4.3,18.6,4.6
	c15.6,1,24.6-3.8,46.9-25c10.1-9.6,19-17.4,20-17.4c0.9,0,10.4,4.1,21,9.2c10.8,5.1,27.7,12.1,38,15.7l18.3,6.2v25.5
	c0,29.8,2.6,39.5,13.2,49.8c8.2,7.7,14.2,10.8,28,14c31.5,7.2,74,7.7,105.5,1.2c16.9-3.6,23.6-6.8,32.3-15.9
	c9.8-10.1,11.5-16.4,12.5-47.4l0.9-28l19.2-6.3c10.4-3.6,27.4-10.4,37.5-15.2c9.9-4.8,19-8.7,20-8.7c1,0,9.6,7.5,19,16.9
	c21.4,20.9,28.4,24.8,44.6,25c9.7,0,13.9-0.9,21.4-4.6c22.1-10.9,56.8-42.1,76.8-68.7c13.7-18.1,17.8-27.2,18.6-39.8
	c1-15.7-3.9-25.1-25.5-47.4c-16.8-17.4-17.4-18.6-15.7-22.9c1-2.6,5.5-12.7,9.9-22.4c4.4-9.8,10.6-25.1,13.7-34.2l5.6-16.4l28-0.9
	c31-1,35.7-2.4,47.2-12.7c14-12.7,19.8-37.5,19.8-84c0-31.1-2.7-53.5-8.4-66.9c-3.4-8.4-14.5-19.7-23.1-23.6
	c-6.5-2.9-12.3-3.6-35.6-4.4l-27.7-0.9l-6.2-18c-3.4-9.9-10.3-26.7-15.4-37.5c-5.1-10.8-9.2-20.2-9.2-21.2c0-1,7.7-9.6,16.9-19.2
	c21-21.5,24.8-28.4,25-44.5c0-9.8-0.9-13.9-4.6-21.4c-10.9-22.1-41.4-56.3-67.5-75.9c-19.3-14.5-28.2-18.6-41-19.5
	c-15.9-1-25.5,4.1-47.4,25.1c-9.6,9.6-18.3,17.3-19.3,17.3s-10.4-4.1-21.2-9.2c-10.8-5.1-27.7-12.1-37.8-15.6l-18.5-6.3V96.3
	c0-28.6-2.2-38-11.3-48.6c-8-9.4-16.6-13.7-35.6-17.8C496.9,26.8,447.7,24.3,437.2,26.1z"/>
<path style="fill:none;stroke:#000000;stroke-miterlimit:10;" d="M510.3,227.7c59.6,12.5,109.6,44.6,145.8,93.3
	c31.1,41.8,45.8,87.8,45.8,141.9c0,20.2-1,34.5-3.4,46c-20.8,97.9-91.7,168.6-190,189.6c-20.6,4.4-68.8,4.9-89,0.8
	c-97.9-19.4-171-91.7-192.2-190c-4.8-22.4-4.8-72.9,0-94.3c22.6-100.3,98.9-173,199.3-189.4C447.9,222.1,488.3,223.1,510.3,227.7z"
	/>
</svg>
